<mxfile host="app.diagrams.net" modified="2023-03-20T23:56:48.389Z" agent="5.0 (Windows NT 10.0; Win64; x64) AppleWebKit/537.36 (KHTML, like Gecko) Chrome/111.0.0.0 Safari/537.36" etag="JcSKUorQOef6qcb9OkIh" version="21.0.8" type="github">
  <diagram name="Page-1" id="TWToeqbnHmtvmzS3LOs3">
    <mxGraphModel dx="3674" dy="1120" grid="1" gridSize="10" guides="1" tooltips="1" connect="1" arrows="1" fold="1" page="1" pageScale="1" pageWidth="1600" pageHeight="900" math="0" shadow="0">
      <root>
        <mxCell id="0" />
        <mxCell id="1" parent="0" />
        <mxCell id="vwJP4W1zADHUCNo8CIFC-2" value="&lt;font size=&quot;1&quot;&gt;dayOfTheWeek: &#39;sunday&#39;&lt;/font&gt;" style="swimlane;whiteSpace=wrap;html=1;fillColor=#D5E8D4;strokeColor=#82b366;gradientColor=#97d077;fontStyle=1;fontFamily=Helvetica;movable=1;resizable=1;rotatable=1;deletable=1;editable=1;locked=0;connectable=1;swimlaneBody=1;swimlaneFillColor=none;strokeWidth=4;gradientDirection=north;rounded=1;shadow=1;glass=0;" parent="1" vertex="1">
          <mxGeometry x="-1380" y="70" width="250" height="440" as="geometry" />
        </mxCell>
        <mxCell id="vwJP4W1zADHUCNo8CIFC-6" value="" style="whiteSpace=wrap;html=1;aspect=fixed;" parent="vwJP4W1zADHUCNo8CIFC-2" vertex="1">
          <mxGeometry x="200" y="60" width="15" height="15" as="geometry" />
        </mxCell>
        <mxCell id="vwJP4W1zADHUCNo8CIFC-43" value="&lt;b&gt;date:&amp;nbsp;&lt;/b&gt;" style="rounded=1;whiteSpace=wrap;html=1;align=left;shadow=1;" parent="vwJP4W1zADHUCNo8CIFC-2" vertex="1">
          <mxGeometry x="10" y="110" width="230" height="30" as="geometry" />
        </mxCell>
        <mxCell id="vwJP4W1zADHUCNo8CIFC-46" value="bloodPressure:123/12" style="rounded=1;whiteSpace=wrap;html=1;fontStyle=1;shadow=1;" parent="vwJP4W1zADHUCNo8CIFC-2" vertex="1">
          <mxGeometry x="10" y="230" width="230" height="30" as="geometry" />
        </mxCell>
        <mxCell id="vwJP4W1zADHUCNo8CIFC-45" value="&lt;b&gt;user_id:brother1&lt;/b&gt;" style="rounded=1;whiteSpace=wrap;html=1;shadow=1;" parent="vwJP4W1zADHUCNo8CIFC-2" vertex="1">
          <mxGeometry x="10" y="190" width="230" height="30" as="geometry" />
        </mxCell>
        <mxCell id="vwJP4W1zADHUCNo8CIFC-44" value="timeOfday: morning" style="rounded=1;whiteSpace=wrap;html=1;fontStyle=1;shadow=1;" parent="vwJP4W1zADHUCNo8CIFC-2" vertex="1">
          <mxGeometry x="10" y="150" width="230" height="30" as="geometry" />
        </mxCell>
        <mxCell id="vwJP4W1zADHUCNo8CIFC-48" value="&lt;b&gt;check_box&lt;/b&gt;" style="rounded=1;whiteSpace=wrap;html=1;shadow=1;" parent="vwJP4W1zADHUCNo8CIFC-2" vertex="1">
          <mxGeometry x="11" y="270" width="230" height="30" as="geometry" />
        </mxCell>
        <mxCell id="vwJP4W1zADHUCNo8CIFC-47" value="&lt;b&gt;delete&lt;/b&gt;" style="rounded=1;whiteSpace=wrap;html=1;shadow=1;" parent="vwJP4W1zADHUCNo8CIFC-2" vertex="1">
          <mxGeometry x="10" y="310" width="230" height="30" as="geometry" />
        </mxCell>
        <UserObject label="%date{ddd mmm dd yyyy HH:MM:ss}%" placeholders="1" id="vwJP4W1zADHUCNo8CIFC-49">
          <mxCell style="text;html=1;strokeColor=none;fillColor=none;align=center;verticalAlign=middle;whiteSpace=wrap;overflow=hidden;" parent="vwJP4W1zADHUCNo8CIFC-2" vertex="1">
            <mxGeometry x="40" y="115" width="160" height="20" as="geometry" />
          </mxCell>
        </UserObject>
        <mxCell id="vwJP4W1zADHUCNo8CIFC-7" value="&lt;b&gt;date: 01/01/2023&lt;br&gt;timeOfDay: morning&lt;br&gt;user_id: brother1&lt;br&gt;bloodPressure: 123/12&lt;br&gt;&lt;/b&gt;" style="rounded=1;whiteSpace=wrap;html=1;align=left;movable=1;resizable=1;rotatable=1;deletable=1;editable=1;locked=0;connectable=1;container=1;strokeWidth=3;shadow=1;fillColor=#FFF2CC;" parent="vwJP4W1zADHUCNo8CIFC-2" vertex="1">
          <mxGeometry x="11" y="32.5" width="230" height="70" as="geometry" />
        </mxCell>
        <mxCell id="vwJP4W1zADHUCNo8CIFC-36" value="delete" style="labelPosition=center;verticalLabelPosition=middle;align=center;html=1;shape=mxgraph.basic.shaded_button;dx=10;fillColor=#FF0000;strokeColor=none;whiteSpace=wrap;" parent="vwJP4W1zADHUCNo8CIFC-7" vertex="1">
          <mxGeometry x="153" y="36" width="54" height="30" as="geometry" />
        </mxCell>
        <mxCell id="vwJP4W1zADHUCNo8CIFC-16" value="" style="whiteSpace=wrap;html=1;aspect=fixed;strokeWidth=3;" parent="vwJP4W1zADHUCNo8CIFC-7" vertex="1">
          <mxGeometry x="170" y="7.5" width="20" height="20" as="geometry" />
        </mxCell>
        <mxCell id="vwJP4W1zADHUCNo8CIFC-19" value="" style="verticalLabelPosition=bottom;verticalAlign=top;html=1;shape=mxgraph.basic.tick;fillColor=#1ff443;" parent="vwJP4W1zADHUCNo8CIFC-7" vertex="1">
          <mxGeometry x="170" y="7.5" width="20" height="20" as="geometry" />
        </mxCell>
        <mxCell id="vwJP4W1zADHUCNo8CIFC-17" style="edgeStyle=orthogonalEdgeStyle;rounded=0;orthogonalLoop=1;jettySize=auto;html=1;exitX=0.5;exitY=1;exitDx=0;exitDy=0;" parent="vwJP4W1zADHUCNo8CIFC-2" source="vwJP4W1zADHUCNo8CIFC-7" target="vwJP4W1zADHUCNo8CIFC-7" edge="1">
          <mxGeometry relative="1" as="geometry" />
        </mxCell>
        <mxCell id="ULSatKOnPQzvYYHol4TG-25" value="&lt;b&gt;id_:&lt;/b&gt;" style="rounded=1;whiteSpace=wrap;html=1;shadow=1;movable=1;resizable=1;rotatable=1;deletable=1;editable=1;locked=0;connectable=1;" parent="vwJP4W1zADHUCNo8CIFC-2" vertex="1">
          <mxGeometry x="11" y="350" width="230" height="30" as="geometry" />
        </mxCell>
        <mxCell id="ULSatKOnPQzvYYHol4TG-29" value="&lt;b&gt;dayOfTheWeek: morning&lt;/b&gt;" style="rounded=1;whiteSpace=wrap;html=1;shadow=1;movable=1;resizable=1;rotatable=1;deletable=1;editable=1;locked=0;connectable=1;" parent="vwJP4W1zADHUCNo8CIFC-2" vertex="1">
          <mxGeometry x="11" y="390" width="230" height="30" as="geometry" />
        </mxCell>
        <mxCell id="vwJP4W1zADHUCNo8CIFC-51" value="" style="shape=datastore;whiteSpace=wrap;html=1;strokeWidth=3;shadow=1;fillColor=#f9f7ed;strokeColor=#36393d;gradientColor=#8AFFF3;movable=0;resizable=0;rotatable=0;deletable=0;editable=0;locked=1;connectable=0;" parent="1" vertex="1">
          <mxGeometry x="-910" y="40" width="290" height="780" as="geometry" />
        </mxCell>
        <mxCell id="vwJP4W1zADHUCNo8CIFC-52" value="&lt;b&gt;date:&amp;nbsp;&lt;/b&gt;" style="rounded=1;whiteSpace=wrap;html=1;align=left;shadow=1;movable=1;resizable=1;rotatable=1;deletable=1;editable=1;locked=0;connectable=1;" parent="1" vertex="1">
          <mxGeometry x="-880" y="380" width="230" height="30" as="geometry" />
        </mxCell>
        <mxCell id="vwJP4W1zADHUCNo8CIFC-53" value="timeOfday: morning" style="rounded=1;whiteSpace=wrap;html=1;fontStyle=1;shadow=1;movable=1;resizable=1;rotatable=1;deletable=1;editable=1;locked=0;connectable=1;" parent="1" vertex="1">
          <mxGeometry x="-880" y="420" width="230" height="30" as="geometry" />
        </mxCell>
        <mxCell id="vwJP4W1zADHUCNo8CIFC-54" value="&lt;b&gt;user_id:brother1&lt;/b&gt;" style="rounded=1;whiteSpace=wrap;html=1;shadow=1;movable=1;resizable=1;rotatable=1;deletable=1;editable=1;locked=0;connectable=1;" parent="1" vertex="1">
          <mxGeometry x="-880" y="460" width="230" height="30" as="geometry" />
        </mxCell>
        <mxCell id="vwJP4W1zADHUCNo8CIFC-55" value="bloodPressure:123/12" style="rounded=1;whiteSpace=wrap;html=1;fontStyle=1;shadow=1;movable=1;resizable=1;rotatable=1;deletable=1;editable=1;locked=0;connectable=1;" parent="1" vertex="1">
          <mxGeometry x="-880" y="500" width="230" height="30" as="geometry" />
        </mxCell>
        <mxCell id="vwJP4W1zADHUCNo8CIFC-56" value="&lt;b&gt;check_box: boolien&lt;/b&gt;" style="rounded=1;whiteSpace=wrap;html=1;shadow=1;movable=1;resizable=1;rotatable=1;deletable=1;editable=1;locked=0;connectable=1;" parent="1" vertex="1">
          <mxGeometry x="-880" y="540" width="230" height="30" as="geometry" />
        </mxCell>
        <mxCell id="vwJP4W1zADHUCNo8CIFC-57" value="&lt;b&gt;delete&lt;/b&gt;" style="rounded=1;whiteSpace=wrap;html=1;shadow=1;movable=1;resizable=1;rotatable=1;deletable=1;editable=1;locked=0;connectable=1;" parent="1" vertex="1">
          <mxGeometry x="-880" y="620" width="230" height="30" as="geometry" />
        </mxCell>
        <UserObject label="%date{ddd mmm dd yyyy HH:MM:ss}%" placeholders="1" id="vwJP4W1zADHUCNo8CIFC-58">
          <mxCell style="text;html=1;strokeColor=none;fillColor=none;align=center;verticalAlign=middle;whiteSpace=wrap;overflow=hidden;movable=1;resizable=1;rotatable=1;deletable=1;editable=1;locked=0;connectable=1;" parent="1" vertex="1">
            <mxGeometry x="-845" y="385" width="160" height="20" as="geometry" />
          </mxCell>
        </UserObject>
        <mxCell id="vwJP4W1zADHUCNo8CIFC-60" value="&lt;b style=&quot;border-color: var(--border-color);&quot;&gt;dayOfTheWeek: morning&lt;/b&gt;" style="rounded=1;whiteSpace=wrap;html=1;shadow=1;movable=1;resizable=1;rotatable=1;deletable=1;editable=1;locked=0;connectable=1;" parent="1" vertex="1">
          <mxGeometry x="-880" y="580" width="230" height="30" as="geometry" />
        </mxCell>
        <mxCell id="ULSatKOnPQzvYYHol4TG-1" value="Vertical Container" style="swimlane;whiteSpace=wrap;html=1;rounded=1;shadow=1;strokeWidth=4;fillColor=#d5e8d4;strokeColor=#82b366;gradientColor=#00CC00;gradientDirection=north;" parent="1" vertex="1">
          <mxGeometry x="-350" y="470" width="260" height="390" as="geometry" />
        </mxCell>
        <mxCell id="ULSatKOnPQzvYYHol4TG-3" value="&lt;b style=&quot;border-color: var(--border-color);&quot;&gt;dayOfTheWeek: morning&lt;/b&gt;" style="rounded=1;whiteSpace=wrap;html=1;shadow=1;" parent="ULSatKOnPQzvYYHol4TG-1" vertex="1">
          <mxGeometry x="21" y="60" width="230" height="30" as="geometry" />
        </mxCell>
        <mxCell id="ULSatKOnPQzvYYHol4TG-4" value="&lt;b&gt;date:&amp;nbsp;&lt;/b&gt;" style="rounded=1;whiteSpace=wrap;html=1;align=left;shadow=1;" parent="ULSatKOnPQzvYYHol4TG-1" vertex="1">
          <mxGeometry x="21" y="100" width="230" height="30" as="geometry" />
        </mxCell>
        <mxCell id="ULSatKOnPQzvYYHol4TG-5" value="timeOfday: morning" style="rounded=1;whiteSpace=wrap;html=1;fontStyle=1;shadow=1;" parent="ULSatKOnPQzvYYHol4TG-1" vertex="1">
          <mxGeometry x="20" y="140" width="230" height="30" as="geometry" />
        </mxCell>
        <mxCell id="ULSatKOnPQzvYYHol4TG-6" value="&lt;b&gt;user_id:brother1&lt;/b&gt;" style="rounded=1;whiteSpace=wrap;html=1;shadow=1;" parent="ULSatKOnPQzvYYHol4TG-1" vertex="1">
          <mxGeometry x="20" y="180" width="230" height="30" as="geometry" />
        </mxCell>
        <mxCell id="ULSatKOnPQzvYYHol4TG-7" value="bloodPressure:123/12" style="rounded=1;whiteSpace=wrap;html=1;fontStyle=1;shadow=1;" parent="ULSatKOnPQzvYYHol4TG-1" vertex="1">
          <mxGeometry x="21" y="220" width="230" height="30" as="geometry" />
        </mxCell>
        <mxCell id="ULSatKOnPQzvYYHol4TG-8" value="&lt;b&gt;check_box&lt;/b&gt;" style="rounded=1;whiteSpace=wrap;html=1;shadow=1;" parent="ULSatKOnPQzvYYHol4TG-1" vertex="1">
          <mxGeometry x="20" y="260" width="230" height="30" as="geometry" />
        </mxCell>
        <mxCell id="ULSatKOnPQzvYYHol4TG-9" value="&lt;b&gt;delete_button&lt;/b&gt;" style="rounded=1;whiteSpace=wrap;html=1;shadow=1;" parent="ULSatKOnPQzvYYHol4TG-1" vertex="1">
          <mxGeometry x="20" y="300" width="230" height="30" as="geometry" />
        </mxCell>
        <UserObject label="%date{ddd mmm dd yyyy HH:MM:ss}%" placeholders="1" id="ULSatKOnPQzvYYHol4TG-10">
          <mxCell style="text;html=1;strokeColor=none;fillColor=none;align=center;verticalAlign=middle;whiteSpace=wrap;overflow=hidden;" parent="ULSatKOnPQzvYYHol4TG-1" vertex="1">
            <mxGeometry x="50" y="105" width="160" height="20" as="geometry" />
          </mxCell>
        </UserObject>
        <mxCell id="ULSatKOnPQzvYYHol4TG-16" value="&lt;font size=&quot;1&quot;&gt;&lt;b&gt;&lt;i style=&quot;font-size: 19px;&quot;&gt;CALENDER&lt;/i&gt;&lt;/b&gt;&lt;/font&gt;" style="shape=image;html=1;verticalAlign=top;verticalLabelPosition=bottom;labelBackgroundColor=#ffffff;imageAspect=0;aspect=fixed;image=https://cdn1.iconfinder.com/data/icons/android-png/128/Android-Calender.png" parent="1" vertex="1">
          <mxGeometry x="-460" y="30" width="300" height="300" as="geometry" />
        </mxCell>
        <mxCell id="ULSatKOnPQzvYYHol4TG-17" value="&lt;b&gt;id_:&lt;/b&gt;" style="rounded=1;whiteSpace=wrap;html=1;shadow=1;movable=1;resizable=1;rotatable=1;deletable=1;editable=1;locked=0;connectable=1;" parent="1" vertex="1">
          <mxGeometry x="-880" y="340" width="230" height="30" as="geometry" />
        </mxCell>
        <mxCell id="nmeh8pA4bLjamwn6L_4J-1" value="" style="html=1;shadow=0;dashed=0;align=center;verticalAlign=middle;shape=mxgraph.arrows2.stylisedArrow;dy=0.6;dx=40;notch=15;feather=0.4;fillColor=#d5e8d4;strokeColor=#82b366;strokeWidth=4;" vertex="1" parent="1">
          <mxGeometry x="-1070" y="260" width="100" height="60" as="geometry" />
        </mxCell>
        <mxCell id="nmeh8pA4bLjamwn6L_4J-2" value="" style="html=1;shadow=0;dashed=0;align=center;verticalAlign=middle;shape=mxgraph.arrows2.jumpInArrow;dy=15;dx=38;arrowHead=55;direction=north;fillColor=#d5e8d4;strokeColor=#82b366;strokeWidth=4;" vertex="1" parent="1">
          <mxGeometry x="-420" y="340" width="100" height="100" as="geometry" />
        </mxCell>
        <mxCell id="nmeh8pA4bLjamwn6L_4J-3" value="" style="html=1;shadow=0;dashed=0;align=center;verticalAlign=middle;shape=mxgraph.arrows2.stylisedArrow;dy=0.6;dx=40;notch=15;feather=0.4;fillColor=#d5e8d4;strokeColor=#82b366;strokeWidth=4;" vertex="1" parent="1">
          <mxGeometry x="-530" y="590" width="100" height="60" as="geometry" />
        </mxCell>
      </root>
    </mxGraphModel>
  </diagram>
</mxfile>
